<?xml version="1.0" encoding="iso-8859-1"?>
<!-- Generator: Adobe Illustrator 19.0.0, SVG Export Plug-In . SVG Version: 6.00 Build 0)  -->
<svg version="1.1" id="Layer_1" xmlns="http://www.w3.org/2000/svg" xmlns:xlink="http://www.w3.org/1999/xlink" x="0px" y="0px"
	 viewBox="0 0 496.158 496.158" style="enable-background:new 0 0 496.158 496.158;" xml:space="preserve">
<path style="fill:#5B4F3F;" d="M248.082,0.003C111.07,0.003,0,111.063,0,248.085c0,137.001,111.07,248.07,248.082,248.07
	c137.006,0,248.076-111.069,248.076-248.07C496.158,111.062,385.088,0.003,248.082,0.003z"/>
<circle style="fill:#0CA342;" cx="248.079" cy="248.079" r="20.496"/>
<g>
	<path style="fill:#E22929;" d="M248.081,62.999c-9.73,0-19.283,0.755-28.607,2.202l1.779,11.828
		c8.744-1.36,17.703-2.071,26.828-2.071c9.058,0,17.952,0.699,26.634,2.039l1.807-11.823
		C267.25,63.744,257.753,62.999,248.081,62.999z"/>
	<path style="fill:#E22929;" d="M274.93,419.125c-8.75,1.363-17.716,2.075-26.849,2.075c-9.199,0-18.229-0.725-27.04-2.106
		l-1.78,11.828c9.392,1.468,19.016,2.237,28.819,2.237c9.747,0,19.316-0.758,28.656-2.21L274.93,419.125z"/>
</g>
<g>
	<path style="fill:#0CA342;" d="M331.41,82.785c-16.795-8.483-35.056-14.482-54.305-17.515c-0.195-0.03-0.388-0.066-0.583-0.096
		l-1.807,11.823c0.144,0.022,0.287,0.049,0.431,0.072c18.042,2.833,35.157,8.453,50.896,16.404c0.134,0.068,0.271,0.133,0.405,0.201
		l5.507-10.619C331.773,82.963,331.591,82.875,331.41,82.785z"/>
	<path style="fill:#0CA342;" d="M220.592,419.02c-18.172-2.9-35.404-8.618-51.224-16.708c-0.139-0.071-0.277-0.145-0.416-0.216
		l-5.482,10.63c0.185,0.095,0.369,0.191,0.554,0.286c16.878,8.619,35.257,14.714,54.637,17.81c0.201,0.032,0.4,0.068,0.601,0.1
		l1.78-11.828C220.891,419.071,220.742,419.043,220.592,419.02z"/>
</g>
<g>
	<path style="fill:#E22929;" d="M331.954,83.055l-5.507,10.619c16.065,8.17,30.682,18.775,43.371,31.326l8.405-8.506
		C364.682,103.101,349.09,91.781,331.954,83.055z"/>
	<path style="fill:#E22929;" d="M125.485,370.312l-8.387,8.527c13.539,13.562,29.172,25.03,46.371,33.887l5.482-10.63
		C152.825,393.794,138.171,383.036,125.485,370.312z"/>
</g>
<g>
	<path style="fill:#0CA342;" d="M412.437,162.917c-8.867-17.077-20.312-32.599-33.827-46.045c-0.128-0.127-0.26-0.252-0.388-0.379
		l-8.405,8.506c0.093,0.092,0.188,0.182,0.281,0.274c12.675,12.594,23.408,27.138,31.718,43.144
		c0.131,0.253,0.269,0.502,0.399,0.756l10.706-5.338C412.763,163.527,412.596,163.225,412.437,162.917z"/>
	<path style="fill:#0CA342;" d="M125.202,370.022c-12.644-12.739-23.32-27.432-31.535-43.588c-0.131-0.257-0.256-0.518-0.385-0.775
		l-10.691,5.362c0.157,0.312,0.308,0.627,0.467,0.939c8.774,17.226,20.167,32.893,33.653,46.482
		c0.131,0.131,0.258,0.267,0.389,0.397l8.387-8.527C125.39,370.217,125.297,370.119,125.202,370.022z"/>
</g>
<g>
	<path style="fill:#E22929;" d="M412.921,163.835l-10.706,5.338c8.07,15.733,13.791,32.867,16.726,50.936l11.804-1.924
		C427.614,198.909,421.519,180.626,412.921,163.835z"/>
	<path style="fill:#E22929;" d="M76.952,274.456l-11.799,1.951c2.973,19.357,8.955,37.722,17.438,54.613l10.691-5.362
		C85.329,309.824,79.726,292.607,76.952,274.456z"/>
</g>
<g>
	<path style="fill:#0CA342;" d="M430.825,218.669c-0.025-0.162-0.054-0.322-0.08-0.484l-11.804,1.924
		c0.019,0.113,0.038,0.226,0.057,0.339c1.443,9,2.205,18.228,2.205,27.635c0,8.852-0.668,17.546-1.95,26.04
		c-0.018,0.116-0.031,0.232-0.049,0.348l11.799,1.952c0.025-0.164,0.048-0.328,0.073-0.492c1.371-9.083,2.085-18.382,2.085-27.848
		C433.161,238.072,432.355,228.249,430.825,218.669z"/>
	<path style="fill:#0CA342;" d="M77.219,220.094l-11.804-1.925c-0.026,0.163-0.055,0.325-0.081,0.489
		c-1.531,9.584-2.337,19.41-2.337,29.425c0,9.462,0.714,18.757,2.084,27.836c0.024,0.163,0.047,0.326,0.072,0.488l11.799-1.951
		c-0.018-0.114-0.031-0.229-0.048-0.343c-1.281-8.491-1.948-17.183-1.948-26.03c0-9.411,0.762-18.642,2.207-27.646
		C77.181,220.324,77.2,220.209,77.219,220.094z"/>
</g>
<g>
	<path style="fill:#E22929;" d="M419.204,274.471c-2.776,18.151-8.381,35.368-16.334,51.202l10.691,5.363
		c8.484-16.892,14.468-35.255,17.443-54.613L419.204,274.471z"/>
	<path style="fill:#E22929;" d="M83.245,163.821c-8.6,16.79-14.697,35.072-17.829,54.349l11.804,1.925
		c2.937-18.068,8.66-35.202,16.731-50.934L83.245,163.821z"/>
</g>
<g>
	<path style="fill:#0CA342;" d="M402.869,325.673c-0.085,0.17-0.168,0.342-0.254,0.512c-8.189,16.17-18.842,30.88-31.464,43.639
		c-0.114,0.115-0.226,0.233-0.34,0.348l8.396,8.517c0.151-0.152,0.298-0.308,0.449-0.46c13.463-13.61,24.831-29.295,33.577-46.536
		c0.111-0.218,0.217-0.438,0.327-0.656L402.869,325.673z"/>
	<path style="fill:#0CA342;" d="M117.787,116.64c-0.149,0.147-0.302,0.292-0.451,0.44c-13.493,13.466-24.913,29.007-33.753,46.099
		c-0.111,0.215-0.228,0.426-0.338,0.642l10.706,5.34c0.086-0.167,0.177-0.332,0.263-0.498c8.285-16.02,18.995-30.581,31.649-43.195
		c0.112-0.111,0.227-0.22,0.339-0.331L117.787,116.64z"/>
</g>
<g>
	<path style="fill:#E22929;" d="M370.811,370.172c-12.672,12.738-27.314,23.513-43.431,31.833l5.494,10.624
		c17.188-8.875,32.809-20.362,46.333-33.939L370.811,370.172z"/>
	<path style="fill:#E22929;" d="M164.017,83.148c-17.126,8.746-32.705,20.084-46.231,33.492l8.415,8.496
		c12.675-12.565,27.28-23.188,43.336-31.375L164.017,83.148z"/>
</g>
<g>
	<path style="fill:#0CA342;" d="M327.38,402.004c-0.195,0.101-0.387,0.205-0.583,0.305c-15.82,8.091-33.052,13.81-51.225,16.71
		c-0.215,0.034-0.428,0.073-0.643,0.106l1.807,11.823c0.257-0.04,0.512-0.086,0.768-0.127c19.38-3.096,37.759-9.193,54.637-17.813
		c0.245-0.125,0.488-0.254,0.732-0.38L327.38,402.004z"/>
	<path style="fill:#0CA342;" d="M219.474,65.201c-0.143,0.022-0.285,0.048-0.428,0.071c-19.249,3.033-37.51,9.033-54.305,17.517
		c-0.24,0.122-0.484,0.237-0.724,0.359l5.52,10.613c0.189-0.097,0.383-0.188,0.573-0.285c15.738-7.952,32.853-13.572,50.895-16.406
		c0.083-0.013,0.165-0.028,0.248-0.041L219.474,65.201z"/>
</g>
<g>
	<path style="fill:#5B4F3F;" d="M248.081,74.957c-9.125,0-18.084,0.711-26.828,2.071l2.468,16.399l5.87,39.011
		c5.835-0.895,12.404-1.458,18.49-1.458c6.083,0,12.058,0.464,17.891,1.359l3.608-21.738l5.135-33.605
		C266.033,75.656,257.139,74.957,248.081,74.957z"/>
	<path style="fill:#5B4F3F;" d="M266.466,363.737c-5.99,0.945-12.13,1.441-18.386,1.441c-6.275,0-12.433-0.5-18.44-1.45
		l-3.328,20.335l-5.271,35.03c8.811,1.382,17.84,2.106,27.04,2.106c9.133,0,18.099-0.712,26.849-2.075L266.466,363.737z"/>
	<path style="fill:#5B4F3F;" d="M326.447,93.673l-16.082,31.009l-9.474,18.86c10.857,5.496,20.741,12.634,29.328,21.087
		l17.69-17.458l21.908-22.172C357.128,112.448,342.512,101.843,326.447,93.673z"/>
</g>
<path style="fill:#ECEDE2;" d="M326.042,93.473c-15.738-7.952-32.854-13.572-50.896-16.404c-0.144-0.023-0.287-0.049-0.431-0.072
	l-5.135,33.605l-3.608,21.738c0.094,0.014,0.186,0.032,0.28,0.046c12.19,1.899,23.756,5.681,34.396,11.036
	c0.082,0.041,0.164,0.081,0.245,0.122l9.474-18.86l16.082-31.009C326.312,93.605,326.176,93.54,326.042,93.473z"/>
<path style="fill:#5B4F3F;" d="M164.984,330.58l-16.917,16.772l-22.582,22.959c12.686,12.723,27.34,23.481,43.467,31.783
	l16.603-32.195l8.853-17.725C183.485,346.533,173.565,339.223,164.984,330.58z"/>
<g>
	<path style="fill:#ECEDE2;" d="M229.378,363.685c-12.331-1.979-24.019-5.878-34.745-11.39c-0.076-0.039-0.151-0.08-0.227-0.119
		l-8.853,17.725l-16.603,32.195c0.139,0.072,0.276,0.145,0.416,0.216c15.82,8.09,33.052,13.808,51.224,16.708
		c0.15,0.023,0.299,0.051,0.45,0.074l5.271-35.03l3.328-20.335C229.553,363.714,229.466,363.699,229.378,363.685z"/>
	<path style="fill:#ECEDE2;" d="M402.215,169.174c-0.13-0.254-0.268-0.503-0.399-0.756c-8.31-16.006-19.043-30.549-31.718-43.144
		c-0.093-0.092-0.188-0.182-0.281-0.274l-21.908,22.172l-17.69,17.458c0.075,0.073,0.15,0.145,0.224,0.219
		c8.643,8.553,15.959,18.442,21.616,29.334l0,0L402.215,169.174z"/>
	<path style="fill:#ECEDE2;" d="M164.775,330.366c-8.605-8.71-15.852-18.763-21.402-29.816c-0.001-0.003-0.003-0.007-0.005-0.01
		l-50.086,25.119c0.129,0.258,0.254,0.519,0.385,0.775c8.215,16.156,18.891,30.849,31.535,43.588
		c0.095,0.096,0.188,0.194,0.283,0.29l22.582-22.959l16.917-16.772C164.914,330.51,164.845,330.437,164.775,330.366z"/>
</g>
<g>
	<path style="fill:#5B4F3F;" d="M402.215,169.174l-50.156,25.01c5.545,10.676,9.491,22.315,11.528,34.6l27.75-4.174l27.604-4.5
		C416.006,202.04,410.285,184.907,402.215,169.174z"/>
	<path style="fill:#5B4F3F;" d="M132.291,265.652l-27.505,4.202l-27.834,4.603c2.774,18.15,8.377,35.368,16.33,51.202l50.086-25.119
		C137.954,289.755,134.153,278.021,132.291,265.652z"/>
	<path style="fill:#5B4F3F;" d="M391.051,269.813l-27.186-4.155c-1.853,12.307-5.625,23.983-10.996,34.723l12.359,6.411
		l37.641,18.882c7.954-15.834,13.559-33.051,16.334-51.202L391.051,269.813z"/>
</g>
<path style="fill:#ECEDE2;" d="M418.998,220.449c-0.019-0.113-0.038-0.226-0.057-0.339l-27.604,4.5l-27.75,4.174
	c0.019,0.113,0.038,0.227,0.056,0.34c1.005,6.172,1.536,12.503,1.536,18.958c0,5.858-0.436,11.614-1.267,17.241
	c-0.016,0.112-0.03,0.224-0.047,0.335l27.186,4.155l28.152,4.658c0.018-0.115,0.032-0.232,0.049-0.348
	c1.282-8.494,1.95-17.188,1.95-26.04C421.203,238.676,420.441,229.448,418.998,220.449z"/>
<path style="fill:#5B4F3F;" d="M131.13,187.704L93.95,169.16c-8.071,15.732-13.794,32.865-16.731,50.934l27.952,4.56l27.4,4.124
	c2.027-12.219,5.94-23.799,11.439-34.428L131.13,187.704z"/>
<path style="fill:#ECEDE2;" d="M132.572,228.777l-27.4-4.124l-27.952-4.56c-0.019,0.115-0.039,0.229-0.057,0.344
	c-1.445,9.003-2.207,18.235-2.207,27.646c0,8.848,0.667,17.54,1.948,26.03c0.017,0.114,0.031,0.229,0.048,0.343l27.834-4.603
	l27.505-4.202c-0.017-0.113-0.031-0.226-0.047-0.339c-0.83-5.624-1.265-11.376-1.265-17.231c0-6.459,0.531-12.793,1.537-18.968
	C132.534,229.001,132.553,228.889,132.572,228.777z"/>
<path style="fill:#5B4F3F;" d="M344.646,343.629l-13.34-13.184c-8.61,8.7-18.573,16.057-29.549,21.728l4.11,8.229l21.514,41.602
	c16.116-8.319,30.758-19.095,43.431-31.833L344.646,343.629z"/>
<path style="fill:#ECEDE2;" d="M365.228,306.791l-12.359-6.411c-0.028,0.056-0.056,0.113-0.084,0.169
	c-5.53,11.013-12.745,21.032-21.309,29.721c-0.057,0.058-0.113,0.117-0.171,0.175l13.34,13.184l26.165,26.542
	c0.114-0.115,0.226-0.233,0.34-0.348c12.623-12.759,23.275-27.469,31.464-43.639c0.086-0.17,0.169-0.341,0.254-0.512
	L365.228,306.791z"/>
<path style="fill:#5B4F3F;" d="M190.589,134.243l-21.052-40.482c-16.056,8.188-30.661,18.81-43.336,31.375l25.523,25.772
	l14.081,13.853c8.617-8.509,18.545-15.691,29.457-21.216L190.589,134.243z"/>
<g>
	<path style="fill:#ECEDE2;" d="M151.724,150.909l-25.523-25.772c-0.112,0.111-0.227,0.22-0.339,0.331
		c-12.655,12.614-23.364,27.175-31.649,43.195c-0.086,0.167-0.177,0.331-0.263,0.498l37.18,18.544l12.881,6.645
		c0.03-0.059,0.062-0.116,0.092-0.174c5.636-10.849,12.917-20.704,21.518-29.234c0.061-0.061,0.124-0.12,0.185-0.18L151.724,150.909
		z"/>
	<path style="fill:#ECEDE2;" d="M305.866,360.402l-4.11-8.229c-0.038,0.02-0.076,0.041-0.114,0.06
		c-10.833,5.582-22.649,9.521-35.119,11.494c-0.019,0.003-0.038,0.006-0.057,0.009l8.464,55.388
		c0.215-0.033,0.428-0.072,0.643-0.106c18.172-2.9,35.404-8.619,51.225-16.71c0.195-0.1,0.388-0.204,0.583-0.305L305.866,360.402z"
		/>
	<path style="fill:#ECEDE2;" d="M223.721,93.428l-2.468-16.399c-0.083,0.013-0.165,0.028-0.248,0.041
		c-18.042,2.834-35.157,8.454-50.895,16.406c-0.19,0.097-0.383,0.188-0.573,0.285l21.052,40.482l4.673,9.302
		c0.043-0.021,0.087-0.043,0.131-0.064c10.58-5.339,21.487-9.022,33.606-10.944c0.198-0.032,0.394-0.068,0.591-0.098L223.721,93.428
		z"/>
</g>
<g>
	<polygon style="fill:#0CA342;" points="352.04,194.194 352.059,194.184 352.059,194.183 	"/>
	<polygon style="fill:#0CA342;" points="143.368,300.539 143.372,300.55 144.028,300.208 	"/>
</g>
<path style="fill:#E22929;" d="M265.651,358.4l-0.351-2.14c-5.61,0.886-11.36,1.352-17.22,1.352c-5.859,0-11.778-0.402-17.387-1.288
	l-1.053,7.405c6.008,0.95,12.166,1.45,18.44,1.45c6.256,0,12.396-0.496,18.386-1.441L265.651,358.4z"/>
<g>
	<path style="fill:#0CA342;" d="M266.251,132.386c-0.094-0.015-0.186-0.032-0.28-0.046l-1.239,7.465
		c0.126,0.02,0.25,0.042,0.376,0.062c11.358,1.773,22.136,5.294,32.055,10.274l3.729-6.597
		C290.252,138.188,278.442,134.285,266.251,132.386z"/>
	<path style="fill:#0CA342;" d="M198.102,345.57c-0.105-0.054-0.208-0.111-0.313-0.166l-3.382,6.772
		c0.076,0.039,0.15,0.08,0.227,0.119c10.726,5.512,22.676,9.454,35.006,11.433l1.053-7.405
		C219.195,354.469,208.107,350.708,198.102,345.57z"/>
	<path style="fill:#0CA342;" d="M330.219,164.63l-5.094,5.6c8.055,7.973,14.878,17.186,20.161,27.331l6.754-3.368l0.02-0.01
		C346.403,183.291,338.862,173.183,330.219,164.63z"/>
</g>
<path style="fill:#E22929;" d="M300.892,143.543c-0.081-0.041-3.729,6.597-3.729,6.597c0.11,0.056,0.222,0.109,0.332,0.165
	c10.117,5.123,19.329,11.771,27.338,19.64c0.097,0.095,0.195,0.189,0.292,0.285c0,0,5.168-5.527,5.094-5.6
	C321.632,156.177,311.749,149.038,300.892,143.543z"/>
<path style="fill:#0CA342;" d="M150.132,297.147l-6.104,3.062l-0.655,0.341c5.55,11.053,13.007,21.32,21.612,30.031l5.097-5.609
	C162.062,316.838,155.308,307.458,150.132,297.147z"/>
<path style="fill:#E22929;" d="M170.357,325.254c-0.093-0.093-0.184-0.189-0.276-0.283c0,0-5.167,5.539-5.097,5.609
	c8.581,8.643,18.5,15.953,29.423,21.596l3.382-6.772C187.608,340.133,178.36,333.313,170.357,325.254z"/>
<g>
	<path style="fill:#0CA342;" d="M345.286,197.561c0.018,0.034,0.036,0.068,0.054,0.102l6.7-3.47L345.286,197.561z"/>
	<path style="fill:#0CA342;" d="M150.086,297.054l-6.058,3.155l6.104-3.062C150.117,297.116,150.101,297.085,150.086,297.054z"/>
</g>
<g>
	<path style="fill:#E22929;" d="M352.059,194.184l-0.02,0.01l-6.7,3.47c5.169,9.952,8.853,20.798,10.765,32.246
		c0.024,0.144,0.048,0.288,0.071,0.432c0,0,7.431-1.444,7.412-1.558C361.55,216.499,357.605,204.86,352.059,194.184z"/>
	<path style="fill:#E22929;" d="M139.712,264.079c0,0-7.438,1.46-7.42,1.573c1.862,12.37,5.662,24.103,11.076,34.888l0.66-0.331
		l6.058-3.155C145.046,286.99,141.447,275.615,139.712,264.079z"/>
</g>
<path style="fill:#0CA342;" d="M363.587,228.784l-7.412,1.558c0.94,5.775,1.438,11.699,1.438,17.741
	c0,5.438-0.402,10.78-1.168,16.005c-0.021,0.143-0.038,0.285-0.06,0.428l7.48,1.143c0.017-0.111,0.031-0.224,0.047-0.335
	c0.831-5.627,1.267-11.383,1.267-17.241C365.179,241.626,364.592,234.955,363.587,228.784z"/>
<path style="fill:#E22929;" d="M144.011,194.349c-5.499,10.629-9.413,22.209-11.439,34.428l7.483,1.126
	c1.902-11.386,5.695-22.442,10.821-32.35L144.011,194.349z"/>
<path style="fill:#0CA342;" d="M140.055,229.904l-7.483-1.126c-0.019,0.112-0.038,0.224-0.056,0.336
	c-1.006,6.175-1.537,12.509-1.537,18.968c0,5.855,0.483,11.946,1.313,17.57l7.42-1.573c-0.765-5.223-1.167-10.563-1.167-15.997
	c0-6.044,0.498-11.972,1.439-17.75C140.008,230.189,140.031,230.046,140.055,229.904z"/>
<g>
	<path style="fill:#E22929;" d="M356.386,264.515c-1.727,11.474-5.237,22.362-10.234,32.381c-0.043,0.087-0.086,0.174-0.129,0.261
		c0,0,6.819,3.28,6.848,3.224c5.371-10.739,9.143-22.416,10.996-34.723L356.386,264.515z"/>
	<path style="fill:#E22929;" d="M144.011,194.349l6.726,3.469c0.045-0.088,0.093-0.176,0.139-0.264
		C150.876,197.554,144.041,194.29,144.011,194.349z"/>
	<path style="fill:#E22929;" d="M325.924,325.128c-8.03,8.113-17.527,15.086-27.758,20.384l3.59,6.662
		c10.976-5.671,20.939-13.028,29.549-21.728L325.924,325.128z"/>
</g>
<g>
	<path style="fill:#0CA342;" d="M346.022,297.157c-5.157,10.27-11.879,19.615-19.857,27.726c-0.081,0.082-0.16,0.164-0.24,0.246
		l5.381,5.318c0.058-0.058,0.114-0.117,0.171-0.175c8.564-8.689,15.863-18.877,21.393-29.89L346.022,297.157z"/>
	<path style="fill:#0CA342;" d="M165.805,164.761c-0.061,0.061-0.124,0.12-0.185,0.18c-8.6,8.53-15.974,18.559-21.609,29.408
		l6.865,3.205c5.263-10.105,12.053-19.286,20.068-27.236c0.084-0.084,0.171-0.166,0.255-0.25L165.805,164.761z"/>
	<path style="fill:#0CA342;" d="M265.323,356.256c-0.008,0.001-0.015,0.003-0.023,0.004l0.351,2.14L265.323,356.256z"/>
	<path style="fill:#0CA342;" d="M298.166,345.512c-10.131,5.219-21.181,8.9-32.843,10.744l0.328,2.144l0.872,5.328
		c12.47-1.973,24.287-5.912,35.119-11.494c0.039-0.02,0.076-0.04,0.114-0.06C301.756,352.174,298.236,345.476,298.166,345.512z"/>
	<path style="fill:#0CA342;" d="M229.59,132.438c-12.119,1.922-23.749,5.768-34.328,11.107l3.623,6.65
		c9.852-4.961,20.554-8.478,31.832-10.274L229.59,132.438z"/>
</g>
<g>
	<path style="fill:#E22929;" d="M248.08,130.98c-6.086,0-12.655,0.563-18.49,1.458c-0.198,0.03,1.126,7.483,1.126,7.483
		c0.235-0.037,0.469-0.08,0.705-0.116c5.433-0.829,10.996-1.259,16.66-1.259c5.661,0,11.222,0.43,16.652,1.258l1.239-7.465
		C260.139,131.445,254.164,130.98,248.08,130.98z"/>
	<path style="fill:#E22929;" d="M195.262,143.545c-10.912,5.524-20.84,12.707-29.457,21.216l5.395,5.307
		c8.038-7.921,17.292-14.611,27.459-19.76c0.075-0.038,0.15-0.074,0.226-0.112C198.885,150.196,195.306,143.524,195.262,143.545z"/>
</g>
<path style="fill:#ECEDE2;" d="M265.108,139.866c-0.126-0.02-0.25-0.042-0.376-0.062l-14.582,87.847
	c0.511,0.051,1.009,0.14,1.508,0.228c1.568,0.276,3.079,0.714,4.502,1.324l41.002-79.063
	C287.244,145.16,276.466,141.639,265.108,139.866z"/>
<path style="fill:#5B4F3F;" d="M250.918,268.393c-0.93,0.129-1.873,0.219-2.838,0.219c-0.966,0-1.909-0.09-2.839-0.219
	c-0.5-0.069-0.999-0.142-1.487-0.247l-13.061,88.177c0.119,0.019,0.238,0.04,0.357,0.059c5.609,0.886,11.171,1.229,17.03,1.229
	s11.609-0.465,17.22-1.352L250.918,268.393z"/>
<path style="fill:#ECEDE2;" d="M238.913,266.433c-0.451-0.226-0.891-0.467-1.322-0.725l-39.802,79.696
	c0.104,0.054,0.208,0.111,0.313,0.166c10.005,5.139,21.093,8.899,32.591,10.754l13.061-88.177
	C242.05,267.781,240.432,267.193,238.913,266.433z"/>
<g>
	<path style="fill:#5B4F3F;" d="M324.833,169.945c-8.01-7.869-17.221-14.517-27.338-19.64c-0.11-0.056-0.222-0.109-0.332-0.165
		l-41.002,79.063c0.468,0.201,0.923,0.427,1.373,0.661c1.407,0.731,2.715,1.62,3.908,2.644c0.387,0.333,0.771,0.669,1.132,1.029
		l62.552-63.307C325.029,170.135,324.931,170.04,324.833,169.945z"/>
	<path style="fill:#5B4F3F;" d="M233.558,262.595c-0.358-0.358-0.69-0.74-1.021-1.123l-62.456,63.5
		c0.093,0.094,0.184,0.189,0.276,0.283c8.003,8.059,17.251,14.879,27.432,20.15l39.802-79.696
		C236.122,264.832,234.759,263.797,233.558,262.595z"/>
</g>
<g>
	<path style="fill:#ECEDE2;" d="M345.286,197.561c-5.283-10.145-12.105-19.358-20.161-27.331l-62.552,63.307
		c1.138,1.134,2.125,2.413,2.973,3.787c0.258,0.419,0.509,0.841,0.737,1.278l79.056-40.938
		C345.322,197.629,345.304,197.596,345.286,197.561z"/>
	<path style="fill:#ECEDE2;" d="M229.719,257.232c-0.218-0.436-0.433-0.873-0.62-1.326l-79.014,41.147
		c0.015,0.031,0.031,0.063,0.046,0.093c5.176,10.311,11.931,19.691,19.949,27.824l62.456-63.5
		C231.429,260.187,230.485,258.765,229.719,257.232z"/>
</g>
<g>
	<path style="fill:#5B4F3F;" d="M356.104,229.91c-1.912-11.448-5.595-22.294-10.765-32.246l-79.056,40.938
		c0.746,1.43,1.317,2.96,1.711,4.562c0.122,0.494,0.226,0.994,0.311,1.501l87.87-14.324
		C356.152,230.197,356.128,230.053,356.104,229.91z"/>
	<path style="fill:#5B4F3F;" d="M227.787,251.061c-0.073-0.501-0.131-1.007-0.167-1.52l-87.908,14.538
		c0.021,0.143,0.039,0.287,0.06,0.43c1.735,11.537,5.274,22.481,10.314,32.545l79.014-41.147
		C228.468,254.377,228.034,252.75,227.787,251.061z"/>
</g>
<g>
	<path style="fill:#ECEDE2;" d="M356.176,230.341l-87.87,14.324c0.187,1.113,0.307,2.249,0.307,3.415
		c0,0.494-0.04,0.978-0.074,1.463c-0.037,0.513-0.094,1.019-0.167,1.52l88.014,13.453c0.021-0.143,0.039-0.285,0.06-0.428
		c0.766-5.225,1.168-10.568,1.168-16.005C357.613,242.04,357.116,236.117,356.176,230.341z"/>
	<path style="fill:#ECEDE2;" d="M228.163,243.164l-88.108-13.26c-0.024,0.143-0.047,0.285-0.071,0.428
		c-0.941,5.778-1.439,11.706-1.439,17.75c0,5.434,0.402,10.774,1.167,15.997l87.908-14.537c-0.034-0.484-0.074-0.968-0.074-1.462
		c0-1.167,0.12-2.303,0.307-3.416C227.938,244.157,228.042,243.658,228.163,243.164z"/>
</g>
<g>
	<path style="fill:#5B4F3F;" d="M268.371,251.062c-0.245,1.677-0.676,3.292-1.301,4.813c-0.19,0.464-0.409,0.913-0.632,1.359
		l79.583,39.922c0.043-0.087,0.086-0.174,0.129-0.261c4.997-10.019,8.508-20.907,10.234-32.381L268.371,251.062z"/>
	<path style="fill:#5B4F3F;" d="M150.876,197.554c-0.046,0.088-0.094,0.176-0.139,0.264c-5.126,9.908-8.78,20.7-10.682,32.086
		l88.108,13.26c0.392-1.591,0.959-3.111,1.698-4.533c0.233-0.447,0.488-0.88,0.752-1.308L150.876,197.554z"/>
</g>
<g>
	<path style="fill:#ECEDE2;" d="M266.438,257.235c-0.762,1.524-1.7,2.94-2.801,4.22c-0.328,0.381-0.659,0.759-1.014,1.115
		l63.301,62.558c0.081-0.082,0.16-0.164,0.24-0.246c7.978-8.11,14.701-17.456,19.857-27.726L266.438,257.235z"/>
	<path style="fill:#ECEDE2;" d="M171.2,170.068c-0.084,0.084-0.171,0.166-0.255,0.25c-8.015,7.95-14.805,17.131-20.068,27.236
		l79.736,39.77c0.844-1.367,1.824-2.641,2.955-3.771c0.359-0.358,0.742-0.692,1.126-1.023L171.2,170.068z"/>
	<path style="fill:#ECEDE2;" d="M257.267,266.423c-1.681,0.843-3.487,1.468-5.393,1.824c-0.315,0.059-0.636,0.102-0.956,0.146
		L265.3,356.26c0.008-0.001,0.015-0.002,0.023-0.004c11.662-1.844,22.712-5.525,32.843-10.744L257.267,266.423z"/>
</g>
<path style="fill:#5B4F3F;" d="M262.623,262.57c-1.208,1.212-2.577,2.256-4.055,3.138c-0.425,0.253-0.858,0.492-1.302,0.715
	l40.899,79.089c0.07-0.036,0.139-0.074,0.208-0.11c10.231-5.298,19.52-12.162,27.55-20.274L262.623,262.57z"/>
<path style="fill:#ECEDE2;" d="M230.716,139.921c-11.277,1.796-21.979,5.313-31.832,10.274l41.092,79.017
	c1.269-0.545,2.601-0.971,3.986-1.252L230.716,139.921z"/>
<g>
	<path style="fill:#5B4F3F;" d="M248.08,138.546c-5.664,0-11.227,0.43-16.66,1.259c-0.235,0.036-0.469,0.079-0.705,0.116
		l13.247,88.039c0.67-0.137,1.352-0.24,2.043-0.31c0.682-0.068,1.373-0.104,2.073-0.104c0.699,0,1.39,0.036,2.071,0.104
		l14.582-87.847C259.303,138.976,253.742,138.546,248.08,138.546z"/>
	<path style="fill:#5B4F3F;" d="M198.885,150.196c-0.075,0.038-0.151,0.074-0.226,0.112c-10.168,5.149-19.422,11.839-27.459,19.76
		l63.494,62.462c1.199-1.033,2.514-1.929,3.93-2.665c0.443-0.23,0.892-0.453,1.353-0.652L198.885,150.196z"/>
</g>
<circle style="fill:#E22929;" cx="248.079" cy="248.079" r="9.746"/>
<g>
</g>
<g>
</g>
<g>
</g>
<g>
</g>
<g>
</g>
<g>
</g>
<g>
</g>
<g>
</g>
<g>
</g>
<g>
</g>
<g>
</g>
<g>
</g>
<g>
</g>
<g>
</g>
<g>
</g>
</svg>
